# xmcd
#
# Track frame offsets:
#	150
#	14922
#	30112
#	44738
#	65214
#	81122
#	101829
#	117580
#	139857
#	158086
#
# Disc length: 2333 seconds
#
# Revision: 0
# Processed by: cddbd v1.5.2PL0 Copyright (c) Steve Scherf et al.
# Submitted via: audiograbber 1.83.01
#
DISCID=8e091b0a
DTITLE=Mircea Baniciu - Secunda 1
DYEAR=1989
DGENRE=
TTITLE0=Poveste despre poveste
TTITLE1=Promisiunea
TTITLE2=Cantec pentru cel ce vede - intaia oara soarele
TTITLE3=Lume, lume
TTITLE4=Scorpia si ghionoaia
TTITLE5=La-nceput de drum
TTITLE6=Balada dragostei
TTITLE7=Frunza
TTITLE8=Secunda cea fara de batranete si fara de moarte
TTITLE9=In loc de final
EXTD=
EXTT0=
EXTT1=
EXTT2=
EXTT3=
EXTT4=
EXTT5=
EXTT6=
EXTT7=
EXTT8=
EXTT9=
PLAYORDER=
